<?xml version="1.0" encoding="UTF-8"?>
<svg
  xmlns="http://www.w3.org/2000/svg"
  version="1.2"
  baseProfile="tiny-ps"
  viewBox="0 0 1206 1206">
  <title>Delivo</title>

<path d="M0 0 C168.96 0 337.92 0 512 0 C512 168.96 512 337.92 512 512 C343.04 512 174.08 512 0 512 C0 343.04 0 174.08 0 0 Z " fill="#FEB50F" transform="translate(0,0)"/>
<path d="M0 0 C11.42171884 8.89371617 19.23955395 19.8172006 23.80859375 33.6875 C23.90914063 34.57566406 24.0096875 35.46382812 24.11328125 36.37890625 C24.59217327 38.88769051 24.59217327 38.88769051 27.00390625 40.05859375 C28.45410156 40.58646484 28.45410156 40.58646484 29.93359375 41.125 C31.02542969 41.54265625 32.11726563 41.9603125 33.2421875 42.390625 C34.41910156 42.81859375 35.59601563 43.2465625 36.80859375 43.6875 C45.31964896 46.80978766 53.21888335 50.24554033 61.05859375 54.8125 C61.7858667 55.23233154 62.51313965 55.65216309 63.26245117 56.0847168 C69.89479536 60.05941117 69.89479536 60.05941117 71.80859375 63.6875 C71.70135475 69.80012326 71.70135475 69.80012326 69.10839844 72.37744141 C66.24593613 74.00801176 64.3596062 74.07491271 61.07421875 74.0859375 C59.94927002 74.09173828 58.82432129 74.09753906 57.6652832 74.10351562 C55.87997192 74.08321289 55.87997192 74.08321289 54.05859375 74.0625 C52.84969482 74.05669922 51.6407959 74.05089844 50.39526367 74.04492188 C41.23569924 73.91269799 32.68193828 72.9703819 23.80859375 70.6875 C23.71835937 71.68007812 23.628125 72.67265625 23.53515625 73.6953125 C22.90213732 78.0823322 21.20612075 81.6530344 19.18359375 85.5625 C18.64508789 86.61630859 18.64508789 86.61630859 18.09570312 87.69140625 C15.21124601 93.19578474 11.98398309 98.06574387 7.80859375 102.6875 C7.24011719 103.35910156 6.67164063 104.03070313 6.0859375 104.72265625 C-1.17590319 112.72455713 -13.09917414 120.33595683 -24.00390625 121.3125 C-24.79410156 121.38726562 -25.58429688 121.46203125 -26.3984375 121.5390625 C-26.99011719 121.58804688 -27.58179688 121.63703125 -28.19140625 121.6875 C-28.31257812 122.3990625 -28.43375 123.110625 -28.55859375 123.84375 C-29.42450848 127.73502115 -30.94837162 131.28391153 -32.44921875 134.96875 C-33.29859081 138.08013396 -33.22423507 139.64803233 -32.19140625 142.6875 C-30.7746063 144.87043377 -30.7746063 144.87043377 -28.94140625 146.8125 C-28.35875 147.47507813 -27.77609375 148.13765625 -27.17578125 148.8203125 C-21.75143654 153.92432189 -17.49278832 154.12825903 -10.2734375 153.9921875 C-5.8498269 153.7391626 -1.54530961 152.98126467 2.80859375 152.1875 C23.15600693 148.49838324 23.15600693 148.49838324 29.55859375 152.5 C32.39832193 155.26084684 33.76115752 156.76885686 33.96875 160.7890625 C33.93652344 161.95179688 33.90429688 163.11453125 33.87109375 164.3125 C33.81716262 166.43691768 33.78810474 168.56249665 33.80859375 170.6875 C34.13859375 171.0175 34.46859375 171.3475 34.80859375 171.6875 C35.481638 178.01411594 33.78117221 183.10177249 30.80859375 188.6875 C28.09523969 191.76752353 26.71563333 192.54237367 22.68359375 193.1875 C19.16500754 192.73348888 16.64590051 191.95575158 13.37109375 190.6875 C5.40603229 187.67631823 1.04164027 188.11996993 -6.75390625 191.1875 C-14.99653261 194.30728976 -24.55503902 195.82551838 -33.06640625 192.5625 C-39.50494936 188.69937413 -45.52730032 184.6254385 -51.19140625 179.6875 C-51.53945313 180.89792969 -51.53945313 180.89792969 -51.89453125 182.1328125 C-53.50341086 186.54269336 -55.64915919 190.47602383 -57.94140625 194.5625 C-58.3590625 195.32691406 -58.77671875 196.09132813 -59.20703125 196.87890625 C-62.14231741 202.14989268 -65.4549079 206.95298455 -69.19140625 211.6875 C-67.34157851 215.5685829 -64.90325192 218.83628597 -62.31640625 222.25 C-52.65635231 235.27535619 -43.854649 248.03477709 -39.19140625 263.6875 C-38.89959473 264.50694092 -38.6077832 265.32638184 -38.30712891 266.1706543 C-36.23636307 272.02752184 -34.64931142 277.82829132 -33.40234375 283.90234375 C-33.09660297 285.34445381 -32.79061108 286.78651066 -32.484375 288.22851562 C-32.01630884 290.43937606 -31.56181582 292.64940355 -31.14404297 294.87036133 C-29.75423837 303.68329733 -29.75423837 303.68329733 -24.81152344 310.67822266 C-22.2014591 312.01449899 -22.2014591 312.01449899 -19.56689453 312.81665039 C-14.87882533 314.53528789 -12.19414416 318.6614903 -10.046875 323 C-9.03241175 326.18698959 -8.96098239 328.84724321 -9.00390625 332.1875 C-9.01035156 333.2909375 -9.01679688 334.394375 -9.0234375 335.53125 C-9.17432226 338.3664799 -9.60292211 340.91912973 -10.19140625 343.6875 C-18.20602604 343.8033896 -26.22029538 343.89221166 -34.23554611 343.94656086 C-37.95746215 343.97264706 -41.67880468 344.00802492 -45.40039062 344.06469727 C-48.99252194 344.11905547 -52.58410197 344.1489279 -56.17661285 344.16188622 C-57.5466098 344.17111959 -58.91657681 344.18915106 -60.28633881 344.21615028 C-62.20589224 344.25247896 -64.12600136 344.25454269 -66.04589844 344.25512695 C-67.13843933 344.26623001 -68.23098022 344.27733307 -69.35662842 344.28877258 C-72.19140625 343.6875 -72.19140625 343.6875 -74.57403564 341.32951355 C-76.63436208 337.96392106 -76.36554007 336.56754893 -75.56640625 332.75 C-75.34984375 331.60789062 -75.13328125 330.46578125 -74.91015625 329.2890625 C-74.67296875 328.10054688 -74.43578125 326.91203125 -74.19140625 325.6875 C-69.69689885 298.89787039 -77.05780672 278.78187095 -92.05078125 256.6796875 C-94.80895453 252.82428471 -97.44685927 249.59992543 -101.19140625 246.6875 C-102.00609375 246.0378125 -102.82078125 245.388125 -103.66015625 244.71875 C-109.88913641 240.40637912 -115.13433473 239.0475979 -122.56640625 239 C-123.32735596 238.99299072 -124.08830566 238.98598145 -124.87231445 238.97875977 C-131.05501994 239.17956326 -134.70767853 241.27222146 -139.17578125 245.6171875 C-139.7584375 246.25914062 -140.34109375 246.90109375 -140.94140625 247.5625 C-152.16605323 259.04322258 -167.75746283 263.82849805 -183.46484375 264.11889648 C-206.22903473 264.15959334 -227.90846195 259.27827788 -248.19140625 248.6875 C-248.27390625 249.38875 -248.35640625 250.09 -248.44140625 250.8125 C-250.06839175 257.04927775 -254.06867656 260.99913462 -259.19140625 264.6875 C-263.70643827 266.54360847 -267.51596994 266.93233365 -272.37890625 266.875 C-273.58933594 266.86855469 -274.79976563 266.86210937 -276.046875 266.85546875 C-279.19140625 266.6875 -279.19140625 266.6875 -282.19140625 265.6875 C-282.28411832 257.67284654 -282.35517663 249.65841741 -282.39865494 241.64336014 C-282.41952329 237.92155252 -282.44782606 234.20011198 -282.49316406 230.47851562 C-282.53665038 226.8864049 -282.56054902 223.29464705 -282.57091522 219.7022934 C-282.57830175 218.33232823 -282.59272626 216.96238223 -282.61432648 215.59256744 C-282.64339105 213.67290611 -282.64504041 211.7528891 -282.64550781 209.83300781 C-282.65883148 208.19419647 -282.65883148 208.19419647 -282.67242432 206.52227783 C-282.078207 203.02038424 -280.9603246 201.84044477 -278.19140625 199.6875 C-276.19677734 199.46289062 -276.19677734 199.46289062 -274.08984375 199.84375 C-272.90406738 200.03710938 -272.90406738 200.03710938 -271.69433594 200.234375 C-270.86836914 200.38390625 -270.04240234 200.5334375 -269.19140625 200.6875 C-267.5381371 200.90907895 -265.88447711 201.12775824 -264.23046875 201.34375 C-248.56557333 203.69942787 -234.08514225 208.39982037 -219.19140625 213.6875 C-207.19359134 217.90485272 -192.38476259 220.46920837 -180.19140625 215.6875 C-179.54816406 215.44257813 -178.90492188 215.19765625 -178.2421875 214.9453125 C-170.37347667 211.55801984 -165.88503065 205.77210687 -162.44140625 198.0625 C-159.87329268 191.43456333 -158.46204713 184.67085964 -157.19140625 177.6875 C-157.84496094 177.46449219 -158.49851562 177.24148438 -159.171875 177.01171875 C-163.22268146 175.23523312 -166.79256863 172.89369838 -170.50390625 170.5 C-172.201388 169.41598531 -173.89932721 168.33268675 -175.59765625 167.25 C-176.5 166.67378906 -177.40234375 166.09757813 -178.33203125 165.50390625 C-182.33839135 162.95888242 -186.36563102 160.44791607 -190.39404297 157.93798828 C-193.46722958 156.02285598 -196.53673184 154.10193992 -199.60546875 152.1796875 C-202.94601275 150.0874817 -206.29313268 148.0073871 -209.65234375 145.9453125 C-210.89474475 145.172218 -212.13695262 144.39881298 -213.37890625 143.625 C-214.40371094 142.99464844 -215.42851562 142.36429688 -216.484375 141.71484375 C-220.14930086 138.97011573 -223.12027103 135.82977044 -225.19140625 131.6875 C-226.11365715 123.40356497 -223.61112109 118.95255981 -219.12890625 112.125 C-218.49984375 111.13048828 -217.87078125 110.13597656 -217.22265625 109.11132812 C-215.89469106 107.01419497 -214.55841504 104.922304 -213.21435547 102.83544922 C-210.62298158 98.80296371 -208.08571537 94.73803942 -205.55078125 90.66992188 C-204.31068734 88.68082166 -203.06719133 86.69383846 -201.8203125 84.70898438 C-198.61437388 79.60285922 -195.44831221 74.47707838 -192.34375 69.30859375 C-191.71984375 68.27154297 -191.0959375 67.23449219 -190.453125 66.16601562 C-189.2741922 64.20070688 -188.10062892 62.23216263 -186.93359375 60.25976562 C-179.04415919 47.11387647 -179.04415919 47.11387647 -174.19140625 44.6875 C-164.55025758 42.76290158 -158.17763485 47.06879005 -150.51757812 52.15966797 C-146.98360892 54.4807825 -143.38538594 56.69611234 -139.79296875 58.92529297 C-136.70697576 60.84164305 -133.62796859 62.7687645 -130.55078125 64.69921875 C-124.20498025 68.67953533 -117.85550359 72.65393997 -111.50390625 76.625 C-110.50367432 77.25043701 -109.50344238 77.87587402 -108.47290039 78.52026367 C-101.39829069 82.94093295 -94.30898585 87.33632341 -87.19140625 91.6875 C-87.61292969 90.67429687 -88.03445313 89.66109375 -88.46875 88.6171875 C-89.02246062 87.2657582 -89.57582785 85.91418817 -90.12890625 84.5625 C-90.40669922 83.89734375 -90.68449219 83.2321875 -90.97070312 82.546875 C-91.37192383 81.56074219 -91.37192383 81.56074219 -91.78125 80.5546875 C-92.02738037 79.95769043 -92.27351074 79.36069336 -92.52709961 78.74560547 C-98.1576797 61.30136066 -95.0076775 39.90391793 -86.94140625 23.9375 C-78.28818044 8.71975806 -78.28818044 8.71975806 -72.19140625 6.6875 C-72.19140625 6.0275 -72.19140625 5.3675 -72.19140625 4.6875 C-51.51895545 -12.77412333 -22.43497249 -16.2564305 0 0 Z " fill="#0B0E0C" transform="translate(361.19140625,90.3125)"/>
<path d="M0 0 C3.91767341 0.57455141 6.56703104 1.72707411 9.89453125 3.8515625 C10.8378833 4.44799561 11.78123535 5.04442871 12.75317383 5.65893555 C13.76275146 6.30773682 14.7723291 6.95653809 15.8125 7.625 C17.97902465 8.99892189 20.14569546 10.37261331 22.3125 11.74609375 C23.97539062 12.80546143 23.97539062 12.80546143 25.671875 13.88623047 C30.86570916 17.18495525 36.09015937 20.43417615 41.3125 23.6875 C51.56409774 30.08960726 61.78879244 36.53370465 72 43 C70.66705469 46.99883592 68.06749775 48.23921699 64.6875 50.4375 C60.76099549 53.01603508 57.32051177 55.66429138 54 59 C53.34 59 52.68 59 52 59 C51.773125 59.556875 51.54625 60.11375 51.3125 60.6875 C49.62971908 63.65239972 47.43891488 65.616515 45 68 C33.33463993 80.00446937 23.7531162 97.37541667 18 113 C12.52857462 111.50700853 8.3204363 108.87415864 3.625 105.8125 C1.94060581 104.73098915 0.25568349 103.65030052 -1.4296875 102.5703125 C-2.32526367 101.99442383 -3.22083984 101.41853516 -4.14355469 100.82519531 C-9.23630494 97.57105849 -14.37026207 94.38288425 -19.5 91.1875 C-23.33629933 88.79637326 -27.16990079 86.40104605 -31 84 C-32.0209375 83.36143066 -33.041875 82.72286133 -34.09375 82.06494141 C-35.08375 81.44151855 -36.07375 80.8180957 -37.09375 80.17578125 C-37.98771484 79.61415283 -38.88167969 79.05252441 -39.80273438 78.47387695 C-42 77 -42 77 -44 75 C-44.54153592 70.80817626 -43.46859355 68.55696446 -41.2109375 65.0703125 C-40.60596436 64.1215625 -40.00099121 63.1728125 -39.37768555 62.1953125 C-38.71679932 61.18210938 -38.05591309 60.16890625 -37.375 59.125 C-35.99215958 56.96178713 -34.61068241 54.79770229 -33.23046875 52.6328125 C-32.5245459 51.53098633 -31.81862305 50.42916016 -31.09130859 49.29394531 C-27.88288167 44.24046691 -24.78350411 39.12284735 -21.6875 34 C-17.63219809 27.31581021 -13.5681038 20.63799151 -9.4375 14 C-9.0561792 13.38382813 -8.6748584 12.76765625 -8.28198242 12.1328125 C-5.678769 7.96674523 -2.88558628 3.97592205 0 0 Z " fill="#FCB40F" transform="translate(191,145)"/>
<path d="M0 0 C1.5 1.3828125 1.5 1.3828125 3 3.125 C10.0541844 10.46618548 19.18494996 14.7337608 29 17 C29.86496094 17.20367187 30.72992188 17.40734375 31.62109375 17.6171875 C33.74245207 18.1003674 35.87061601 18.55351626 38 19 C36.125 24.75 36.125 24.75 35 27 C31.31120701 25.19752161 27.77349917 23.1723788 24.21875 21.12109375 C18.27147115 18.11604264 11.51017556 18.28744347 5 19 C1.30263963 20.61238272 -0.51922811 23.34294508 -2.875 26.5625 C-5.45081909 34.43305834 -4.80272707 41.14319072 -1.1875 48.5625 C0.59769548 51.88164122 2.33758908 54.36956999 5 57 C5 57.66 5 58.32 5 59 C6.485 59.495 6.485 59.495 8 60 C9.68816933 61.64488294 11.35353315 63.31337542 13 65 C14.31175986 66.02813611 15.6369893 67.04084432 17 68 C16.46129208 73.44693568 14.50527514 77.46007292 11.9375 82.1875 C11.53917969 82.93128906 11.14085937 83.67507813 10.73046875 84.44140625 C7.18103607 90.93372299 3.26483281 97.73516719 -2 103 C-26.81275765 104.46558871 -48.848306 92.8912536 -68 78 C-66.57829546 57.14833347 -49.7007953 35.52672977 -36 21 C-35.37609375 20.31164062 -34.7521875 19.62328125 -34.109375 18.9140625 C-27.64464256 12.04188894 -10.08861673 -4.36264507 0 0 Z " fill="#FBB30F" transform="translate(284,194)"/>
<path d="M0 0 C9.43127118 1.04791902 18.59780013 3.08277893 27.8125 5.3125 C29.64839854 5.75406825 31.48433727 6.19546945 33.3203125 6.63671875 C34.25391602 6.86149902 35.18751953 7.0862793 36.14941406 7.31787109 C38.99089238 7.9978206 41.83475195 8.66670718 44.6796875 9.33203125 C45.60289795 9.54883545 46.5261084 9.76563965 47.47729492 9.98901367 C49.22432707 10.39897843 50.97185158 10.80685342 52.7199707 11.2121582 C57.8081306 12.41125283 62.79466854 13.81826752 67.79272461 15.34863281 C70.23906378 16.07054775 72.67641994 16.61733434 75.1875 17.0625 C79.20814311 17.81910625 83.06458528 18.87559579 87 20 C90.32438279 20.71481574 93.65894808 21.36809078 97 22 C95.81587529 34.84775306 88.38675366 45.81967676 79.21484375 54.515625 C67.36210048 64.28340958 54.25982631 66.92013835 39.33349609 66.2265625 C27.94138464 65.12048597 18.22031859 57.22224958 11.0234375 48.81640625 C0.97884615 34.83542099 -3.05613239 19.74940436 -0.48828125 2.578125 C-0.32714844 1.72734375 -0.16601562 0.8765625 0 0 Z " fill="#FBEBA5" transform="translate(278,136)"/>
<path d="M0 0 C6.33820286 3.93635757 10.95769073 9.28227728 15.7265625 14.9453125 C24.40911907 25.71473473 24.40911907 25.71473473 36.7265625 30.9453125 C45.05754027 31.54348976 52.69079304 30.73742548 60.79858398 29.01953125 C67.14789606 27.72619604 73.27688531 27.64712537 79.7265625 27.9453125 C80.66460445 30.75943835 80.80740296 32.30526605 80.7265625 35.1953125 C80.67766092 38.20765011 80.85024718 40.68742057 81.3515625 43.6953125 C81.75340228 47.17792394 81.31136345 48.86893418 79.7265625 51.9453125 C75.66554881 51.51328977 72.18263289 50.81020604 68.3515625 49.3828125 C59.38554503 46.31828538 53.16506981 48.25434603 44.7265625 51.9453125 C38.48126246 54.13664585 32.50521735 55.65141421 26.26953125 52.8359375 C18.81604337 48.32138112 12.16164492 42.57667291 5.46875 37.0234375 C2.61530355 34.65813675 -0.2942677 32.40134135 -3.2734375 30.1953125 C-8.76907402 25.96546558 -14.70203126 20.5250873 -17.2734375 13.9453125 C-17.8539111 9.30906232 -17.80993173 5.19713236 -15.9609375 0.8828125 C-11.90879978 -3.76964192 -5.07617614 -2.35492708 0 0 Z " fill="#F9E9A4" transform="translate(305.2734375,222.0546875)"/>
<path d="M0 0 C7.42810941 0.15693189 12.55530525 4.10026599 18.625 8.0625 C20.78760152 9.44556099 22.95036033 10.82837607 25.11328125 12.2109375 C26.14018066 12.87319336 27.16708008 13.53544922 28.22509766 14.21777344 C31.39502805 16.25371325 34.59349873 18.2302806 37.8125 20.1875 C38.76253906 20.7753125 39.71257812 21.363125 40.69140625 21.96875 C42.57493541 23.12510793 44.46184879 24.2760959 46.35888672 25.41015625 C48.99799233 26.98857579 51.62415211 28.58714265 54.25 30.1875 C55.09796143 30.68725342 55.94592285 31.18700684 56.81958008 31.7019043 C57.6061499 32.18570557 58.39271973 32.66950684 59.203125 33.16796875 C59.91114258 33.59360107 60.61916016 34.0192334 61.34863281 34.45776367 C63.56882942 36.53123824 63.80919073 38.00400536 64 41 C62.375 44.3125 62.375 44.3125 60 47 C55.38841735 47.78830473 52.93000259 45.99369989 49.1875 43.4375 C47.94675551 42.60721456 46.70444213 41.77927089 45.4609375 40.953125 C44.76323242 40.48712891 44.06552734 40.02113281 43.34667969 39.54101562 C38.72276968 36.50459032 34.01011263 33.60800882 29.3125 30.6875 C27.24451736 29.39757507 25.17680909 28.10721018 23.109375 26.81640625 C22.09166016 26.18105957 21.07394531 25.54571289 20.02539062 24.89111328 C15.3653314 21.97820021 10.71179657 19.05505577 6.0625 16.125 C5.2578833 15.61928467 4.4532666 15.11356934 3.62426758 14.5925293 C2.89361084 14.13144775 2.1629541 13.67036621 1.41015625 13.1953125 C0.77215088 12.79328613 0.13414551 12.39125977 -0.52319336 11.97705078 C-2 11 -2 11 -3 10 C-3.30867281 6.52743085 -3.38701339 4.6127712 -1.5 1.625 C-1.005 1.08875 -0.51 0.5525 0 0 Z " fill="#0D0F0C" transform="translate(107,93)"/>
<path d="M0 0 C3.54237499 0.56385829 6.13735361 1.43654622 9.1953125 3.30078125 C9.98365479 3.77708984 10.77199707 4.25339844 11.58422852 4.74414062 C12.42268311 5.26169922 13.2611377 5.77925781 14.125 6.3125 C15.00663818 6.84939453 15.88827637 7.38628906 16.79663086 7.93945312 C25.10677739 13.01874033 33.34224413 18.21650376 41.55761719 23.44726562 C45.92754981 26.22543151 50.3082766 28.98651223 54.6875 31.75 C56.29561728 32.76555476 57.9036945 33.78117296 59.51171875 34.796875 C60.18678467 35.22323242 60.86185059 35.64958984 61.55737305 36.08886719 C62.03343994 36.38954102 62.50950684 36.69021484 63 37 C62.140625 43.75 62.140625 43.75 60.875 46 C57.88837052 47.59286905 55.12676441 46.88794038 52 46 C49.02501892 44.53173151 46.31537662 42.72054496 43.5625 40.875 C41.8874145 39.78408719 40.21159631 38.69429882 38.53515625 37.60546875 C37.64586426 37.0232959 36.75657227 36.44112305 35.84033203 35.84130859 C30.77019187 32.55447715 25.63113725 29.37791485 20.5 26.1875 C16.66347014 23.79674279 12.83009905 21.40104595 9 19 C7.9790625 18.36143066 6.958125 17.72286133 5.90625 17.06494141 C4.91625 16.44151855 3.92625 15.8180957 2.90625 15.17578125 C2.01228516 14.61415283 1.11832031 14.05252441 0.19726562 13.47387695 C-2 12 -2 12 -4 10 C-4.58654327 6.3829832 -4.15792086 5.22207622 -2 2.1875 C-1.34 1.465625 -0.68 0.74375 0 0 Z " fill="#0D0F0C" transform="translate(192,99)"/>
<path d="M0 0 C2.03857422 0.97705078 2.03857422 0.97705078 4.0546875 2.1953125 C4.82393555 2.65711914 5.59318359 3.11892578 6.38574219 3.59472656 C7.20719727 4.0997168 8.02865234 4.60470703 8.875 5.125 C9.73254883 5.64545898 10.59009766 6.16591797 11.47363281 6.70214844 C22.1367763 13.22552829 32.57493672 20.10481661 43 27 C42.25 33.625 42.25 33.625 40 37 C34.03105412 38.16861892 30.22787128 35.05397491 25.5 31.875 C23.82447018 30.78086487 22.14867742 29.68713232 20.47265625 28.59375 C19.59109863 28.01238281 18.70954102 27.43101562 17.80126953 26.83203125 C14.86329477 24.91059473 11.90288136 23.02890153 8.93359375 21.15625 C7.93457031 20.52605957 6.93554688 19.89586914 5.90625 19.24658203 C3.94938481 18.01292014 1.99235735 16.77951561 0.03515625 15.54638672 C-0.85429688 14.98193848 -1.74375 14.41749023 -2.66015625 13.8359375 C-3.45043213 13.33626465 -4.24070801 12.8365918 -5.05493164 12.32177734 C-7 11 -7 11 -9 9 C-8.81315164 5.57444675 -8.58794945 2.94071912 -6.75 0 C-4.21603757 -1.44797853 -2.77120884 -0.73335961 0 0 Z " fill="#0E100C" transform="translate(115,233)"/>
<path d="M0 0 C2.02612305 0.92700195 2.02612305 0.92700195 4.01171875 2.23828125 C4.76114746 2.72361328 5.51057617 3.20894531 6.28271484 3.70898438 C7.07629395 4.23814453 7.86987305 4.76730469 8.6875 5.3125 C10.38058853 6.41417849 12.07462394 7.51440296 13.76953125 8.61328125 C14.63271973 9.17611816 15.4959082 9.73895508 16.38525391 10.31884766 C21.23194475 13.43503002 26.17907637 16.38759708 31.1237793 19.3449707 C34.97706836 21.67328632 38.55313802 24.08030514 42 27 C41.49701212 31.40114397 39.91227269 33.71195019 37 37 C31.68660573 36.52652922 27.90613748 33.65456095 23.5625 30.8125 C21.8802307 29.73043398 20.197938 28.64840433 18.515625 27.56640625 C17.1843457 26.70426514 17.1843457 26.70426514 15.82617188 25.82470703 C10.83950589 22.60508526 5.82330685 19.43186031 0.8125 16.25 C-2.45892452 14.16759427 -5.72955266 12.08394001 -9 10 C-8.15625 3.2421875 -8.15625 3.2421875 -6.75 1.0625 C-4.35519139 -0.39149094 -2.7736226 -0.21662918 0 0 Z " fill="#0E100C" transform="translate(88,170)"/>
<path d="M0 0 C9 1 9 1 13 2 C13.09927153 6.73219762 13.17165633 11.46378213 13.21972656 16.19677734 C13.23977627 17.80495774 13.26702364 19.41306583 13.30175781 21.02099609 C13.35057264 23.3397002 13.37303428 25.65743625 13.390625 27.9765625 C13.41127014 28.68930328 13.43191528 29.40204407 13.45318604 30.13638306 C13.45545291 35.2404061 12.2267842 38.08634051 9 42 C6 44 6 44 0 44 C0 29.48 0 14.96 0 0 Z " fill="#F9EAA4" transform="translate(90,302)"/>
<path d="M0 0 C4.73219762 -0.09927153 9.46378213 -0.17165633 14.19677734 -0.21972656 C15.80495774 -0.23977627 17.41306583 -0.26702364 19.02099609 -0.30175781 C21.3397002 -0.35057264 23.65743625 -0.37303428 25.9765625 -0.390625 C27.04567368 -0.42159271 27.04567368 -0.42159271 28.13638306 -0.45318604 C33.2404061 -0.45545291 36.08634051 0.7732158 40 4 C42 7 42 7 42 13 C27.48 13 12.96 13 -2 13 C-1 3 -1 3 0 0 Z " fill="#FAEAA4" transform="translate(299,410)"/>
<path d="M0 0 C6.73786741 0.31739618 11.03099544 3.13207238 16.5625 6.8125 C17.38685547 7.34681641 18.21121094 7.88113281 19.06054688 8.43164062 C21.38295546 9.94092774 23.69376009 11.46615008 26 13 C26.63534668 13.42200684 27.27069336 13.84401367 27.92529297 14.27880859 C29.28492982 15.18377076 30.64273224 16.09148852 32 17 C31.39779006 23.38342541 31.39779006 23.38342541 29.75 25.9375 C27.34650595 27.39676424 25.78586341 27.22728192 23 27 C20.81518555 25.99365234 20.81518555 25.99365234 18.63671875 24.5859375 C17.83169922 24.07160156 17.02667969 23.55726563 16.19726562 23.02734375 C15.36904297 22.48207031 14.54082031 21.93679687 13.6875 21.375 C12.87087891 20.85292969 12.05425781 20.33085937 11.21289062 19.79296875 C5.97131878 16.40996222 0.93704499 12.8124626 -4 9 C-3.46930939 5.17902761 -2.50298434 2.93828597 0 0 Z " fill="#0E100C" transform="translate(118,146)"/>
<path d="M0 0 C4.04648443 1.34882814 4.95502599 3.34826069 7 7 C5.81271058 10.56186827 4.63190104 10.98072032 1.39160156 12.60131836 C0.76737305 12.8978833 0.14314453 13.19444824 -0.5 13.5 C-1.13711914 13.80752197 -1.77423828 14.11504395 -2.43066406 14.43188477 C-11.08877212 18.54284215 -17.37766103 20.4065777 -27 20 C-27 16.7 -27 13.4 -27 10 C-25.45892578 9.67128906 -25.45892578 9.67128906 -23.88671875 9.3359375 C-15.89637447 7.53765104 -9.14793766 5.50857313 -2.13671875 1.07421875 C-1.43160156 0.71972656 -0.72648437 0.36523438 0 0 Z " fill="#11130F" transform="translate(347,176)"/>
<path d="M0 0 C3.95820859 0.56545837 6.6659053 1.80902348 10 4 C9.5205537 8.21912747 8.83374881 10.79663178 6 14 C-0.38342541 13.39779006 -0.38342541 13.39779006 -2.9375 11.75 C-4.45240503 9.2548623 -4.47975715 7.87854291 -4 5 C-2 2.1875 -2 2.1875 0 0 Z " fill="#12130C" transform="translate(105,137)"/>
<path d="M0 0 C5.03944175 1.46601942 5.03944175 1.46601942 6.4375 4 C6.25628333 8.25859163 5.25057141 10.82000623 2.4375 14 C-3.99107143 12.92857143 -3.99107143 12.92857143 -6.5625 11 C-7.5625 8.1875 -7.5625 8.1875 -7.5625 5 C-5.4833266 0.92828542 -4.64564421 0 0 0 Z " fill="#13130C" transform="translate(181.5625,91)"/>
<path d="M0 0 C2.8125 2 2.8125 2 5 4 C4.5205537 8.21912747 3.83374881 10.79663178 1 14 C-2.42188655 13.6889194 -4.58784 13.28534154 -7.4375 11.3125 C-9 9 -9 9 -8.9375 5.9375 C-7.33824012 0.92648571 -5.38179246 -0.89696541 0 0 Z " fill="#12120C" transform="translate(101,224)"/>
</svg>
